# xmcd
#
# Track frame offsets:
#	150
#	15745
#	33435
#	51298
#	68623
#	82715
#	104010
#	116440
#	138115
#	148800
#	160153
#	172528
#
# Disc length: 2492 seconds
#
# Revision: 3
# Processed by: cddbd v1.5.2PL0 Copyright (c) Steve Scherf et al.
# Submitted via: audiograbber 1.83.01
#
DISCID=9009ba0c
DTITLE=Sunnyland Slim - Slim's Shout
DYEAR=1993
DGENRE=Blues
TTITLE0=I'm Prison Bound
TTITLE1=Slim's Shout
TTITLE2=The Devil Is A Busy Man
TTITLE3=Brownskin Woman
TTITLE4=Shake It
TTITLE5=Decoration Day
TTITLE6=Baby How Long
TTITLE7=Sunnyland Special
TTITLE8=Harlem Can't Be Heaven
TTITLE9=It's You Baby
TTITLE10=Everytime I Get To Drinking
TTITLE11=Tired Of You Clowning
EXTD=
EXTT0=
EXTT1=
EXTT2=
EXTT3=
EXTT4=
EXTT5=
EXTT6=
EXTT7=
EXTT8=
EXTT9=
EXTT10=
EXTT11=
PLAYORDER=
